<svg width="92" height="130" viewBox="0 0 92 130" fill="none" xmlns="http://www.w3.org/2000/svg">
<path d="M90.6437 117.378C92.2173 120.605 90.8856 124.529 87.5181 125.773C80.3696 128.413 72.7962 129.781 65.1421 129.798C55.3161 129.819 45.6131 127.613 36.7627 123.344C27.9124 119.076 20.1449 112.856 14.0445 105.153C7.944 97.4502 3.66932 88.4644 1.54184 78.8715C-0.585633 69.2786 -0.510539 59.3281 1.76148 49.7684C4.0335 40.2087 8.44331 31.2885 14.6593 23.6785C20.8753 16.0685 28.7358 9.96687 37.6496 5.83233C44.5931 2.61169 52.035 0.649938 59.6292 0.02029C63.2068 -0.27633 66.0728 2.71745 66.0108 6.30677V6.30677C65.9488 9.89608 62.9783 12.7135 59.4093 13.0994C53.7833 13.7078 48.2795 15.2322 43.1197 17.6255C35.9886 20.9331 29.7003 25.8144 24.7275 31.9024C19.7546 37.9904 16.2268 45.1266 14.4092 52.7743C12.5916 60.4221 12.5315 68.3825 14.2335 76.0568C15.9355 83.7312 19.3552 90.9198 24.2356 97.0821C29.1159 103.244 35.3299 108.22 42.4102 111.635C49.4905 115.05 57.2529 116.815 65.1137 116.798C70.8015 116.785 76.4337 115.84 81.7895 114.013C85.1871 112.854 89.0701 114.151 90.6437 117.378V117.378Z" fill="url(#paint0_linear_58_53)"/>
<defs>
<linearGradient id="paint0_linear_58_53" x1="3.40116" y1="12.0622" x2="130.606" y2="21.7693" gradientUnits="userSpaceOnUse">
<stop offset="1" stop-color="#BE0707"/>
</linearGradient>
</defs>
</svg>
