<svg width="130" height="130" viewBox="0 0 130 130" fill="none" xmlns="http://www.w3.org/2000/svg">
<path d="M123.5 64.7049C127.09 64.7049 130.034 67.6224 129.675 71.1943C128.615 81.7572 124.98 91.9353 119.046 100.817C111.903 111.506 101.752 119.837 89.8744 124.757C77.9972 129.677 64.9279 130.964 52.3191 128.456C39.7104 125.948 28.1285 119.757 19.0381 110.667C9.94765 101.576 3.757 89.9945 1.24896 77.3858C-1.25908 64.777 0.0281343 51.7077 4.94783 39.8305C9.86753 27.9533 18.1987 17.8017 28.8879 10.6594C37.7696 4.72486 47.9477 1.08942 58.5106 0.0296003C62.0825 -0.328784 65 2.61504 65 6.2049V6.2049C65 9.79475 62.0786 12.663 58.5168 13.1106C50.5294 14.1143 42.8529 16.9632 36.1103 21.4685C27.559 27.1823 20.894 35.3036 16.9583 44.8054C13.0225 54.3071 11.9927 64.7626 13.9992 74.8496C16.0056 84.9366 20.9581 94.2021 28.2304 101.474C35.5028 108.747 44.7683 113.699 54.8553 115.706C64.9423 117.712 75.3978 116.682 84.8995 112.747C94.4013 108.811 102.523 102.146 108.236 93.5945C112.742 86.852 115.591 79.1755 116.594 71.1881C117.042 67.6263 119.91 64.7049 123.5 64.7049V64.7049Z" fill="url(#paint0_linear_58_42)"/>
<defs>
<linearGradient id="paint0_linear_58_42" x1="3.40116" y1="11.969" x2="130.606" y2="21.6761" gradientUnits="userSpaceOnUse">
<stop offset="1" stop-color="#BE0707"/>
</linearGradient>
</defs>
</svg>
