<svg width="121" height="130" viewBox="0 0 121 130" fill="none" xmlns="http://www.w3.org/2000/svg">
<path d="M117.167 91.4728C120.369 93.0973 121.674 97.0311 119.738 100.054C114.475 108.272 107.413 115.224 99.0534 120.366C88.8427 126.646 77.0942 129.98 65.1067 130C53.1193 130.02 41.3599 126.724 31.1286 120.477C20.8974 114.231 12.5928 105.276 7.13311 94.6044C1.67339 83.9325 -0.728813 71.9586 0.192086 60.0066C1.11299 48.0545 5.32111 36.59 12.3512 26.8804C19.3813 17.1708 28.9596 9.59434 40.027 4.98876C49.0879 1.21819 58.8579 -0.440893 68.6014 0.0998176C72.1858 0.298727 74.6123 3.65871 74.0565 7.20528V7.20528C73.5008 10.7519 70.1706 13.1333 66.5824 13.0241C59.2199 12.7999 51.8677 14.1421 45.0216 16.991C36.1677 20.6755 28.5051 26.7366 22.881 34.5043C17.2569 42.272 13.8904 51.4436 13.1537 61.0053C12.4169 70.5669 14.3387 80.146 18.7065 88.6836C23.0743 97.2211 29.7179 104.385 37.9029 109.382C46.0879 114.379 55.4954 117.016 65.0854 117C74.6753 116.984 84.0741 114.317 92.2427 109.293C98.5589 105.408 103.949 100.231 108.075 94.1292C110.086 91.1555 113.966 89.8483 117.167 91.4728V91.4728Z" fill="url(#paint0_linear_58_31)"/>
<defs>
<linearGradient id="paint0_linear_58_31" x1="3.40116" y1="12.2641" x2="130.606" y2="21.9712" gradientUnits="userSpaceOnUse">
<stop offset="1" stop-color="#BE0707"/>
</linearGradient>
</defs>
</svg>
