<svg width="54" height="54" viewBox="0 0 54 54" fill="none" xmlns="http://www.w3.org/2000/svg">
<g clip-path="url(#clip0_59_129)">
<path d="M35.5659 53.185C50.4871 48.19 58.8622 30.5452 50.9745 15.2831C41.4842 -3.08018 15.5047 -4.27514 4.32369 13.1373C-5.47714 28.4004 2.29024 48.1768 18.5133 53.1826C19.8611 53.4301 20.3536 52.5964 20.3536 51.8853C20.3536 51.2439 20.3296 49.1177 20.3152 46.869C12.8195 48.4979 11.2363 43.6906 11.2363 43.6906C10.0087 40.577 8.24286 39.7481 8.24286 39.7481C5.79236 38.076 8.42785 38.1097 8.42785 38.1097C11.133 38.2971 12.5601 40.8869 12.5601 40.8869C14.9649 45.0071 18.8713 43.8155 20.4041 43.1236C20.6491 41.3866 21.3458 40.195 22.1146 39.5247C16.1325 38.8448 9.83809 36.5313 9.83809 26.2032C9.83809 23.2578 10.8904 20.8577 12.6105 18.9694C12.3366 18.2847 11.4069 15.5435 12.8772 11.8341C12.8772 11.8341 15.1379 11.111 20.2887 14.5969C24.6901 13.4121 29.184 13.3719 33.7809 14.6017C38.9221 11.111 41.1876 11.8389 41.1876 11.8389C42.6603 15.5507 41.733 18.2895 41.4567 18.9718C43.1841 20.8577 44.2267 23.2601 44.2267 26.2056C44.2267 36.5601 37.9227 38.84 31.919 39.5079C32.8896 40.344 33.7472 41.9824 33.7472 44.4954C33.7472 48.0991 33.7112 51.0036 33.7112 51.8925C33.7112 52.6109 34.2013 53.4493 35.5659 53.185Z" fill="#AEAEB2"/>
</g>
<defs>
<clipPath id="clip0_59_129">
<rect width="54" height="54" fill="white"/>
</clipPath>
</defs>
</svg>
