<svg width="54" height="54" viewBox="0 0 54 54" fill="none" xmlns="http://www.w3.org/2000/svg">
<path d="M26.8279 3.375C14.8331 3.375 15.5824 8.60288 15.5824 8.60288V14.0197H27.0439V15.6465H11.0497C11.0497 15.6465 3.375 14.7724 3.375 26.9392C3.375 39.1061 10.0744 38.6741 10.0744 38.6741H14.0704V33.0278C14.0181 32.1412 14.1516 31.2535 14.4623 30.4215C14.7729 29.5894 15.2538 28.8315 15.8743 28.1961C16.4948 27.5607 17.2411 27.0618 18.0655 26.7315C18.8899 26.4012 19.7742 26.2466 20.6618 26.2777H32.0186C32.8507 26.3147 33.6815 26.181 34.4601 25.8851C35.2386 25.5891 35.9484 25.137 36.5458 24.5567C37.1433 23.9763 37.6157 23.2799 37.9341 22.5103C38.2525 21.7407 38.4102 20.9141 38.3974 20.0812V9.6795C38.3974 9.6795 39.366 3.375 26.8279 3.375ZM20.5166 7.01662C20.9262 7.01462 21.3272 7.13425 21.6688 7.36036C22.0103 7.58647 22.2771 7.90888 22.4352 8.28674C22.5934 8.66459 22.6358 9.08089 22.5571 9.48288C22.4784 9.88486 22.2822 10.2544 21.9933 10.5448C21.7043 10.8351 21.3357 11.0332 20.9341 11.1138C20.5325 11.1945 20.116 11.1541 19.7374 10.9978C19.3588 10.8416 19.035 10.5764 18.8073 10.236C18.5795 9.89551 18.4579 9.49511 18.4579 9.0855C18.457 8.81441 18.5096 8.54581 18.6126 8.29507C18.7156 8.04432 18.8671 7.81634 19.0583 7.62419C19.2495 7.43203 19.4767 7.27946 19.727 7.17521C19.9772 7.07096 20.2455 7.01707 20.5166 7.01662ZM27.1755 50.625C39.1702 50.625 38.421 45.3971 38.421 45.3971V39.9802H26.9595V38.3535H42.9536C42.9536 38.3535 50.625 39.2276 50.625 27.0607C50.625 14.8939 43.9256 15.3259 43.9256 15.3259H39.933V20.9723C39.9852 21.8588 39.8518 22.7465 39.5411 23.5785C39.2305 24.4106 38.7495 25.1685 38.1291 25.8039C37.5086 26.4393 36.7623 26.9382 35.9379 27.2685C35.1135 27.5988 34.2292 27.7534 33.3416 27.7222H21.9847C21.1527 27.6853 20.3218 27.819 19.5433 28.1149C18.7648 28.4109 18.055 28.863 17.4575 29.4433C16.8601 30.0237 16.3877 30.7201 16.0693 31.4897C15.7509 32.2593 15.5932 33.0859 15.606 33.9188V44.3374C15.606 44.3374 14.6374 50.625 27.1755 50.625ZM33.4867 46.9834C33.0771 46.9854 32.6762 46.8657 32.3346 46.6396C31.993 46.4135 31.7263 46.0911 31.5682 45.7133C31.41 45.3354 31.3676 44.9191 31.4463 44.5171C31.525 44.1151 31.7212 43.7456 32.0101 43.4552C32.2991 43.1648 32.6677 42.9668 33.0693 42.8862C33.4709 42.8055 33.8874 42.8459 34.266 43.0022C34.6446 43.1584 34.9683 43.4236 35.1961 43.764C35.4239 44.1045 35.5455 44.5049 35.5455 44.9145C35.5464 45.1856 35.4938 45.4542 35.3908 45.7049C35.2878 45.9557 35.1363 46.1837 34.9451 46.3758C34.7539 46.568 34.5267 46.7205 34.2764 46.8248C34.0262 46.929 33.7578 46.9829 33.4867 46.9834Z" fill="#AEAEB2"/>
</svg>
